<svg width="31" height="31" viewBox="0 0 31 31" fill="none" xmlns="http://www.w3.org/2000/svg">
<g clip-path="url(#clip0_214_56)">
<path d="M20.5098 3.28724L16.6461 4.32251C16.6277 4.32743 16.6156 4.34001 16.5987 4.3466C16.5666 4.3583 16.5363 4.37263 16.5066 4.39302C16.4776 4.41219 16.4532 4.43322 16.4286 4.4574C16.4155 4.47024 16.3989 4.47779 16.387 4.49134L15.0189 6.18202L13.1049 5.37905C12.8965 5.29305 12.6565 5.3553 12.5185 5.53203C12.5185 5.53203 11.6363 6.65566 11.2064 7.20358L9.23435 6.41201C9.21579 6.40456 9.19666 6.40658 9.17765 6.40132C9.14401 6.3917 9.11212 6.38472 9.07836 6.38238C9.0446 6.38003 9.0124 6.38349 8.97852 6.38842C8.95895 6.39263 8.93897 6.38763 8.91869 6.39307L5.05498 7.42834C3.72394 7.785 2.93031 9.15819 3.28722 10.4902L7.42832 25.945C7.78523 27.277 9.15914 28.0694 10.4902 27.7128L14.3539 26.6775L14.3549 26.6773C14.4505 26.6516 14.5242 26.5946 14.5866 26.5261C14.5938 26.518 14.6061 26.5178 14.613 26.5087L15.9811 24.818L17.8951 25.621C18.1025 25.7072 18.3426 25.645 18.4817 25.469L19.7938 23.7974L21.7659 24.589C21.7845 24.5964 21.8046 24.5941 21.8236 24.5994C21.856 24.6083 21.8876 24.6143 21.9226 24.6174C21.9583 24.6192 21.9907 24.6167 22.0256 24.6115C22.0442 24.6076 22.062 24.6121 22.0813 24.607L25.945 23.5717C27.276 23.215 28.0697 21.8418 27.7128 20.5098L23.5717 5.05501C23.2147 3.72299 21.8408 2.93059 20.5098 3.28724ZM10.2314 26.7469C9.43255 26.9609 8.60829 26.485 8.39425 25.6862L4.25314 10.2314C4.0391 9.43257 4.51498 8.60831 5.3138 8.39427L8.69454 7.4884L9.21218 9.42025L5.83144 10.3261C5.56485 10.3976 5.40645 10.6719 5.47789 10.9385C5.54932 11.2051 5.82367 11.3635 6.09026 11.292L9.471 10.3862L9.72982 11.3521L6.34908 12.258C6.08248 12.3294 5.92409 12.6037 5.99553 12.8703C6.06696 13.1369 6.3413 13.2953 6.6079 13.2239L9.98864 12.318L10.5063 14.2499L7.12554 15.1557C6.85894 15.2272 6.70055 15.5015 6.77198 15.7681C6.84342 16.0347 7.11776 16.1931 7.38436 16.1217L10.7651 15.2158L11.0239 16.1817L7.64318 17.0876C7.37658 17.159 7.21819 17.4334 7.28962 17.7C7.36106 17.9666 7.6354 18.125 7.90199 18.0535L11.2827 17.1477L11.5416 18.1136L8.16081 19.0195C7.89422 19.0909 7.73583 19.3652 7.80726 19.6318C7.87869 19.8984 8.15304 20.0568 8.41963 19.9854L11.8004 19.0795L12.318 21.0114L8.93727 21.9172C8.67068 21.9887 8.51228 22.263 8.58372 22.5296C8.65515 22.7962 8.92949 22.9546 9.19609 22.8832L12.5768 21.9773L12.8356 22.9432L9.45491 23.8491C9.18831 23.9205 9.02992 24.1949 9.10136 24.4615C9.17279 24.7281 9.44713 24.8864 9.71373 24.815L13.0945 23.9091L13.6121 25.841L10.2314 26.7469ZM19.2385 22.884L17.9302 24.5504L16.022 23.75C15.8168 23.6642 15.5794 23.7247 15.4402 23.8966L14.4535 25.1176L9.78988 7.71255L11.1819 8.2713C11.2816 8.31086 11.3923 8.31845 11.4976 8.29024C11.6512 8.24909 11.6589 8.24702 13.0698 6.44961L14.9779 7.25001C15.0827 7.29337 15.1971 7.29897 15.3014 7.27101C15.4009 7.24436 15.4931 7.18653 15.5605 7.10219L16.5464 5.88246L21.2101 23.2875L19.8181 22.7287C19.6117 22.6463 19.376 22.7095 19.2385 22.884ZM26.7468 20.7686C26.9609 21.5675 26.485 22.3917 25.6862 22.6058L22.3054 23.5116L17.3879 5.15903L20.7686 4.25316C21.5674 4.03912 22.3917 4.515 22.6057 5.31382L26.7468 20.7686Z" fill="#CCC"/>
<path d="M19.872 8.63449C20.1388 8.56302 20.2971 8.28885 20.2256 8.02212C20.1541 7.75538 19.8799 7.59709 19.6132 7.66856C19.3465 7.74004 19.1882 8.0142 19.2597 8.28094C19.3311 8.54767 19.6053 8.70596 19.872 8.63449Z" fill="#CCC"/>
<path d="M20.3897 10.5664C20.6564 10.4949 20.8147 10.2207 20.7432 9.954C20.6718 9.68727 20.3976 9.52898 20.1309 9.60045C19.8641 9.67192 19.7058 9.94609 19.7773 10.2128C19.8488 10.4796 20.1229 10.6378 20.3897 10.5664Z" fill="#CCC"/>
<path d="M20.9073 12.4982C21.174 12.4267 21.3323 12.1526 21.2609 11.8858C21.1894 11.6191 20.9152 11.4608 20.6485 11.5323C20.3818 11.6037 20.2235 11.8779 20.2949 12.1446C20.3664 12.4114 20.6406 12.5697 20.9073 12.4982Z" fill="#CCC"/>
<path d="M21.4249 14.4301C21.6917 14.3586 21.85 14.0844 21.7785 13.8177C21.707 13.551 21.4329 13.3927 21.1661 13.4642C20.8994 13.5356 20.7411 13.8098 20.8126 14.0765C20.884 14.3433 21.1582 14.5016 21.4249 14.4301Z" fill="#CCC"/>
<path d="M21.9426 16.3619C22.2093 16.2904 22.3676 16.0163 22.2961 15.7495C22.2247 15.4828 21.9505 15.3245 21.6838 15.396C21.417 15.4675 21.2587 15.7416 21.3302 16.0084C21.4017 16.2751 21.6759 16.4334 21.9426 16.3619Z" fill="#CCC"/>
<path d="M22.4602 18.2938C22.727 18.2223 22.8853 17.9482 22.8138 17.6814C22.7423 17.4147 22.4681 17.2564 22.2014 17.3279C21.9347 17.3993 21.7764 17.6735 21.8479 17.9402C21.9193 18.207 22.1935 18.3653 22.4602 18.2938Z" fill="#CCC"/>
<path d="M22.9779 20.2256C23.2446 20.1541 23.4029 19.88 23.3314 19.6132C23.2599 19.3465 22.9858 19.1882 22.719 19.2597C22.4523 19.3312 22.294 19.6053 22.3655 19.8721C22.437 20.1388 22.7111 20.2971 22.9779 20.2256Z" fill="#CCC"/>
<path d="M22.0627 9.08279C22.3294 9.01132 22.4877 8.73715 22.4163 8.47042C22.3448 8.20369 22.0706 8.0454 21.8039 8.11687C21.5372 8.18834 21.3789 8.46251 21.4503 8.72924C21.5218 8.99597 21.796 9.15426 22.0627 9.08279Z" fill="#CCC"/>
<path d="M22.5803 11.0146C22.8471 10.9431 23.0054 10.669 22.9339 10.4022C22.8624 10.1355 22.5883 9.97722 22.3215 10.0487C22.0548 10.1202 21.8965 10.3943 21.968 10.6611C22.0394 10.9278 22.3136 11.0861 22.5803 11.0146Z" fill="#CCC"/>
<path d="M23.098 12.9465C23.3647 12.875 23.523 12.6009 23.4515 12.3341C23.3801 12.0674 23.1059 11.9091 22.8392 11.9806C22.5724 12.052 22.4141 12.3262 22.4856 12.5929C22.5571 12.8597 22.8313 13.018 23.098 12.9465Z" fill="#CCC"/>
<path d="M23.6156 14.8783C23.8824 14.8069 24.0406 14.5327 23.9692 14.266C23.8977 13.9992 23.6235 13.8409 23.3568 13.9124C23.0901 13.9839 22.9318 14.258 23.0032 14.5248C23.0747 14.7915 23.3489 14.9498 23.6156 14.8783Z" fill="#CCC"/>
<path d="M24.1333 16.8102C24.4 16.7387 24.5583 16.4646 24.4868 16.1978C24.4153 15.9311 24.1412 15.7728 23.8744 15.8443C23.6077 15.9158 23.4494 16.1899 23.5209 16.4567C23.5924 16.7234 23.8665 16.8817 24.1333 16.8102Z" fill="#CCC"/>
<path d="M24.6509 18.742C24.9176 18.6706 25.0759 18.3964 25.0045 18.1297C24.933 17.8629 24.6588 17.7046 24.3921 17.7761C24.1253 17.8476 23.9671 18.1217 24.0385 18.3885C24.11 18.6552 24.3842 18.8135 24.6509 18.742Z" fill="#CCC"/>
<path d="M13.5428 8.19566C13.2762 8.2671 13.1178 8.54144 13.1893 8.80804L16.8451 22.4517C16.9165 22.7183 17.1909 22.8767 17.4574 22.8053C17.724 22.7339 17.8824 22.4595 17.811 22.1929L14.1552 8.54922C14.0835 8.28166 13.8094 8.12423 13.5428 8.19566Z" fill="#CCC"/>
<path d="M12.1446 10.7051C11.878 10.7765 11.7197 11.0508 11.7911 11.3174L14.3793 20.9767C14.4507 21.2433 14.7251 21.4017 14.9917 21.3302C15.2583 21.2588 15.4166 20.9845 15.3452 20.7179L12.757 11.0586C12.6856 10.792 12.4112 10.6336 12.1446 10.7051Z" fill="#CCC"/>
<path d="M16.0084 9.66978C15.7418 9.74122 15.5834 10.0156 15.6548 10.2822L18.243 19.9414C18.3144 20.208 18.5888 20.3664 18.8554 20.295C19.122 20.2235 19.2804 19.9492 19.2089 19.6826L16.6207 10.0233C16.5493 9.75674 16.2749 9.59835 16.0084 9.66978Z" fill="#CCC"/>
</g>
<defs>
<clipPath id="clip0_214_56">
<rect width="25" height="25" fill="white" transform="translate(0.190674 6.66119) rotate(-15)"/>
</clipPath>
</defs>
</svg>
